<svg width="20" height="20" viewBox="0 0 20 20" fill="none" xmlns="http://www.w3.org/2000/svg">
<path d="M0.769231 2.77419V2C0.565218 2 0.369561 2.08157 0.225302 2.22676C0.0810436 2.37195 0 2.56886 0 2.77419H0.769231ZM19.2308 2.77419H20C20 2.56886 19.919 2.37195 19.7747 2.22676C19.6304 2.08157 19.4348 2 19.2308 2V2.77419ZM0.769231 3.54839H19.2308V2H0.769231V3.54839ZM18.4615 2.77419V15.1613H20V2.77419H18.4615ZM17.1795 16.4516H2.82051V18H17.1795V16.4516ZM1.53846 15.1613V2.77419H0V15.1613H1.53846ZM2.82051 16.4516C2.11282 16.4516 1.53846 15.8735 1.53846 15.1613H0C0 15.9142 0.29716 16.6362 0.826109 17.1686C1.35506 17.7009 2.07247 18 2.82051 18V16.4516ZM18.4615 15.1613C18.4615 15.8735 17.8872 16.4516 17.1795 16.4516V18C17.9275 18 18.6449 17.7009 19.1739 17.1686C19.7028 16.6362 20 15.9142 20 15.1613H18.4615Z" fill="white"/>
<path d="M0.769531 2.77417L10.0003 12.0645L19.2311 2.77417" stroke="white" stroke-width="1.5" stroke-linecap="round" stroke-linejoin="round"/>
</svg>
