<svg width="20" height="21" viewBox="0 0 20 21" fill="none" xmlns="http://www.w3.org/2000/svg">
<path d="M0.5 15.1613V4.54839H0.769231H1.03846V15.1613H0.5ZM18.9615 15.1613V4.54839H19.2308H19.5V15.1613H18.9615ZM18.891 16.1613H19.4464C19.352 16.5957 19.1359 16.9974 18.8192 17.3161C18.5039 17.6335 18.1075 17.8499 17.6795 17.9451V17.3802C18.2632 17.2091 18.7217 16.7462 18.891 16.1613ZM16.6795 17.4516V18H3.32051V17.4516H16.6795ZM2.32051 17.3802V17.9451C1.8925 17.8499 1.49615 17.6335 1.1808 17.3161C0.864075 16.9974 0.647977 16.5957 0.553642 16.1613H1.10904C1.27828 16.7462 1.73685 17.2091 2.32051 17.3802ZM17.9615 3.27419V3.54839H2.03846V3.27419V3H17.9615V3.27419Z" fill="white" stroke="#3A3A3A"/>
<path d="M0.769531 3.27441L10.0003 12.5647L19.2311 3.27441" stroke="#3A3A3A" stroke-width="1.5" stroke-linecap="round" stroke-linejoin="round"/>
</svg>
