<?xml version="1.0" encoding="UTF-8"?>
<svg id="uuid-f725dd14-f6b8-4331-9851-98082d033fd3" data-name="Layer 1" xmlns="http://www.w3.org/2000/svg" xmlns:xlink="http://www.w3.org/1999/xlink" viewBox="0 0 16 16">
  <defs>
    <style>
      .uuid-112db348-2e42-42d0-b992-f41eb1ce0ad1 {
        fill: #fff;
      }

      .uuid-79f6851d-d368-4ef7-a099-3ae8f83b0984 {
        fill: #0b5394;
      }

      .uuid-fdca621c-967b-4e38-be6d-66b6bc308b94 {
        opacity: .5;
      }

      .uuid-d5ecaa27-dd6c-497e-81fb-06cc359f5f19 {
        fill: url(#uuid-c2d740e5-7c0e-42d3-9586-65a9516c4439);
      }

      .uuid-d2048b27-a1b1-4b38-94e5-c5a68bdeecdb {
        fill: none;
        stroke: #0b5394;
        stroke-miterlimit: 10;
        stroke-width: .15px;
      }
    </style>
    <linearGradient id="uuid-c2d740e5-7c0e-42d3-9586-65a9516c4439" x1="8" y1="15.33" x2="8" y2="1.23" gradientUnits="userSpaceOnUse">
      <stop offset="0" stop-color="#a47e1b"/>
      <stop offset="1" stop-color="#dbb42c"/>
    </linearGradient>
  </defs>
  <path class="uuid-d2048b27-a1b1-4b38-94e5-c5a68bdeecdb" d="M4.72,13.31s2.96,1.47,6.61,.16"/>
  <g class="uuid-fdca621c-967b-4e38-be6d-66b6bc308b94">
    <polygon class="uuid-79f6851d-d368-4ef7-a099-3ae8f83b0984" points="8.91 4.05 8.91 13.98 8.73 13.98 8.73 5.82 8.44 6.14 8.44 13.98 8.21 13.98 8.21 6.4 7.96 6.67 7.96 13.98 7.68 13.98 7.68 6.91 7.43 7.18 7.43 13.98 7.15 13.98 7.15 5.86 8.91 4.05"/>
    <polygon class="uuid-79f6851d-d368-4ef7-a099-3ae8f83b0984" points="9.28 13.94 9.28 10.25 10.46 11.42 10.46 13.69 9.28 13.94"/>
    <polygon class="uuid-79f6851d-d368-4ef7-a099-3ae8f83b0984" points="9.28 8.99 9.28 9.76 10.48 10.94 10.48 10.18 9.28 8.99"/>
    <polygon class="uuid-79f6851d-d368-4ef7-a099-3ae8f83b0984" points="9.28 7.78 9.28 8.55 10.48 9.73 10.48 8.97 9.28 7.78"/>
    <polygon class="uuid-79f6851d-d368-4ef7-a099-3ae8f83b0984" points="6.81 13.99 6.81 7.69 5.65 8.84 5.65 13.67 6.81 13.99"/>
    <rect class="uuid-112db348-2e42-42d0-b992-f41eb1ce0ad1" x="5.96" y="9.09" width=".54" height=".17"/>
    <rect class="uuid-112db348-2e42-42d0-b992-f41eb1ce0ad1" x="5.96" y="9.5" width=".54" height=".17"/>
    <rect class="uuid-112db348-2e42-42d0-b992-f41eb1ce0ad1" x="5.96" y="9.91" width=".54" height=".17"/>
    <rect class="uuid-112db348-2e42-42d0-b992-f41eb1ce0ad1" x="5.96" y="10.32" width=".54" height=".17"/>
    <rect class="uuid-112db348-2e42-42d0-b992-f41eb1ce0ad1" x="5.96" y="10.74" width=".54" height=".17"/>
    <rect class="uuid-112db348-2e42-42d0-b992-f41eb1ce0ad1" x="5.96" y="11.15" width=".54" height=".17"/>
    <rect class="uuid-112db348-2e42-42d0-b992-f41eb1ce0ad1" x="5.96" y="11.56" width=".54" height=".17"/>
    <rect class="uuid-112db348-2e42-42d0-b992-f41eb1ce0ad1" x="5.96" y="11.97" width=".54" height=".17"/>
    <rect class="uuid-112db348-2e42-42d0-b992-f41eb1ce0ad1" x="5.96" y="12.39" width=".54" height=".17"/>
  </g>
  <g>
    <polygon class="uuid-79f6851d-d368-4ef7-a099-3ae8f83b0984" points="8.87 3.91 8.87 13.99 8.69 13.99 8.69 5.71 8.39 6.03 8.39 13.99 8.17 13.99 8.17 6.3 7.92 6.58 7.92 13.99 7.64 13.99 7.64 6.81 7.39 7.09 7.39 13.99 7.1 13.99 7.1 5.75 8.87 3.91"/>
    <polygon class="uuid-79f6851d-d368-4ef7-a099-3ae8f83b0984" points="9.24 13.94 9.24 10.21 10.42 11.39 10.42 13.7 9.24 13.94"/>
    <polygon class="uuid-79f6851d-d368-4ef7-a099-3ae8f83b0984" points="9.24 8.93 9.24 9.71 10.44 10.91 10.44 10.13 9.24 8.93"/>
    <polygon class="uuid-79f6851d-d368-4ef7-a099-3ae8f83b0984" points="9.24 7.7 9.24 8.48 10.44 9.68 10.44 8.91 9.24 7.7"/>
    <polygon class="uuid-79f6851d-d368-4ef7-a099-3ae8f83b0984" points="6.77 14 6.77 7.61 5.6 8.78 5.6 13.68 6.77 14"/>
    <rect class="uuid-112db348-2e42-42d0-b992-f41eb1ce0ad1" x="5.91" y="9.02" width=".54" height=".17"/>
    <rect class="uuid-112db348-2e42-42d0-b992-f41eb1ce0ad1" x="5.91" y="9.44" width=".54" height=".17"/>
    <rect class="uuid-112db348-2e42-42d0-b992-f41eb1ce0ad1" x="5.91" y="9.86" width=".54" height=".17"/>
    <rect class="uuid-112db348-2e42-42d0-b992-f41eb1ce0ad1" x="5.91" y="10.28" width=".54" height=".17"/>
    <rect class="uuid-112db348-2e42-42d0-b992-f41eb1ce0ad1" x="5.91" y="10.7" width=".54" height=".17"/>
    <rect class="uuid-112db348-2e42-42d0-b992-f41eb1ce0ad1" x="5.91" y="11.12" width=".54" height=".17"/>
    <rect class="uuid-112db348-2e42-42d0-b992-f41eb1ce0ad1" x="5.91" y="11.54" width=".54" height=".17"/>
    <rect class="uuid-112db348-2e42-42d0-b992-f41eb1ce0ad1" x="5.91" y="11.95" width=".54" height=".17"/>
    <rect class="uuid-112db348-2e42-42d0-b992-f41eb1ce0ad1" x="5.91" y="12.37" width=".54" height=".17"/>
  </g>
  <path class="uuid-d5ecaa27-dd6c-497e-81fb-06cc359f5f19" d="M14.38,6.77c-.06-.29-.11-.58-.19-.86-.72-2.58-2.46-4.04-5.05-4.56-.05-.01-.11-.02-.16-.03-.24-.05-.49-.08-.73-.08h-.5c-.2,0-.41,.02-.61,.06-.38,.07-.77,.14-1.15,.25C3.44,2.25,1.81,4.24,1.6,6.89c0,.01,0,.02,0,.03-.03,.17-.05,.35-.05,.52v.6c0,.18,.02,.36,.04,.54,0,.01,0,.03,0,.04,.09,1.24,.37,2.44,.79,3.61,.04,.12,.02,.32-.06,.43-.15,.2-.36,.36-.55,.53-.13,.11-.18,.23-.11,.39,.18,.39,.37,.78,.55,1.18,.02,.03,.05,.05,.09,.04,.92-.33,1.65-.86,2.4-1.4,.03-.02,.04-.05,.02-.08-.22-.58-.43-1.16-.67-1.72-.63-1.44-.79-2.94-.49-4.47,.35-1.82,1.38-3.07,3.2-3.56,1.77-.47,3.68,.19,4.75,1.61,.93,1.22,1.06,2.63,.92,4.1-.11,1.15-.51,2.23-.95,3.29-.12,.3-.23,.61-.34,.92-.01,.03,0,.06,.02,.08,.28,.22,.55,.46,.85,.66,.43,.28,.88,.53,1.32,.8,.01,0,.02,0,.04,0,.02,0,.05-.01,.06-.03,.21-.36,.42-.73,.64-1.08,.11-.18,.08-.31-.06-.44-.07-.07-.15-.13-.22-.19-.47-.38-.55-.64-.28-1.21,.33-.71,.58-1.44,.71-2.21,.04-.25,.08-.5,.12-.75,.05-.33,.08-.67,.08-1v-.61c0-.24-.02-.48-.07-.71Zm-12.07,.43l.69,.07-.18,1.68-.69-.07,.18-1.68Zm1.13,4.4l-.68,.19-.47-1.71,.68-.19,.47,1.71Zm-.23-5.21l-.7-.25,.6-1.66,.7,.25-.6,1.66Zm9.13-1.62l.69-.29,.68,1.63-.69,.29-.68-1.63Zm.84,7.02l-.68-.19,.47-1.71,.68,.19-.47,1.71Zm.03-2.85l-.11-1.69,.69-.05,.11,1.69-.69,.05Z"/>
</svg>