<svg width="20" height="21" viewBox="0 0 20 21" fill="none" xmlns="http://www.w3.org/2000/svg">
<path d="M18.496 14.9049L13.8935 12.8436L13.605 12.7144L13.3646 12.9195L10.9349 14.9924C10.9347 14.9926 10.9345 14.9927 10.9344 14.9929C10.9251 15.0007 10.9155 15.0079 10.9056 15.0147C10.7475 15.1199 10.5649 15.1824 10.3755 15.1961C10.1862 15.2098 9.9966 15.1743 9.8251 15.093C8.0529 14.2362 6.26908 12.465 5.41277 10.7144C5.33058 10.544 5.29372 10.3553 5.30575 10.1665C5.31779 9.97742 5.37849 9.79463 5.48195 9.63587L5.48202 9.63592L5.48693 9.62806C5.49006 9.62306 5.49357 9.61831 5.49744 9.61386L5.49751 9.61393L5.50375 9.60646L7.57076 7.13244L7.77091 6.89289L7.64356 6.60789L5.5967 2.0268L5.64674 1.52049L5.02076 1.60423C3.93247 1.7498 2.93437 2.28653 2.21287 3.11418C1.49151 3.94166 1.09596 5.00337 1.10002 6.1011M1.10002 6.1011C1.10002 6.10087 1.10002 6.10063 1.10002 6.1004L1.60002 6.09985L1.10002 6.10178C1.10002 6.10155 1.10002 6.10133 1.10002 6.1011ZM18.8327 14.4022L18.8327 14.4022L18.838 14.4046C19.0557 14.4991 19.2369 14.6614 19.3547 14.8673C19.4722 15.0726 19.5204 15.3103 19.4921 15.5452C19.3292 16.7788 18.723 17.9111 17.7867 18.7308C16.8497 19.5511 15.6463 20.0022 14.401 20H14.4001C6.7362 20 0.500009 13.7638 0.50001 6.09985L0.500008 6.09896C0.497776 4.8537 0.948913 3.6502 1.76916 2.71326C2.58885 1.77694 3.72115 1.1708 4.9548 1.00785C5.18968 0.979641 5.42741 1.0279 5.63272 1.1455C5.83865 1.26346 6.00091 1.44486 6.09528 1.66262L6.09524 1.66264L6.09786 1.66846L8.17107 6.28987V6.29741L8.21144 6.39169C8.28283 6.55838 8.3119 6.74013 8.29607 6.92078C8.2803 7.10063 8.22052 7.27382 8.122 7.42508C8.1157 7.43441 8.10752 7.44551 8.09515 7.46111L6.02138 9.92708L5.81134 10.1769L5.95543 10.4697C6.75401 12.0924 8.42748 13.7525 10.0686 14.5497L10.3627 14.6925L10.6115 14.4804L13.0428 12.4076C13.0432 12.4074 13.0435 12.4071 13.0439 12.4068C13.0527 12.3994 13.062 12.3925 13.0717 12.3861L13.0735 12.3849C13.2257 12.2834 13.4007 12.2215 13.5828 12.2047C13.7628 12.188 13.944 12.216 14.1106 12.2861L14.1165 12.2889L14.1165 12.2889L14.1216 12.2912L18.8327 14.4022Z" stroke="#3A3A3A"/>
</svg>
