<svg width="20" height="20" viewBox="0 0 20 20" fill="none" xmlns="http://www.w3.org/2000/svg">
<path fill-rule="evenodd" clip-rule="evenodd" d="M10.8837 6.61668C10.6494 6.38259 10.3317 6.25111 10.0004 6.25111C9.66915 6.25111 9.35145 6.38259 9.11707 6.61668L4.40207 11.33C4.16769 11.5645 4.03605 11.8825 4.03613 12.2141C4.03621 12.5456 4.16799 12.8635 4.40249 13.0979C4.63698 13.3323 4.95498 13.4639 5.28653 13.4639C5.61808 13.4638 5.93602 13.332 6.17041 13.0975L10.0004 9.26751L13.8304 13.0975C14.0661 13.3253 14.3817 13.4515 14.7095 13.4488C15.0372 13.4461 15.3508 13.3148 15.5827 13.0831C15.8146 12.8515 15.9462 12.538 15.9492 12.2103C15.9522 11.8825 15.8263 11.5667 15.5987 11.3308L10.8846 6.61584L10.8837 6.61668Z" fill="white"/>
</svg>
