<svg width="20" height="20" viewBox="0 0 20 20" fill="none" xmlns="http://www.w3.org/2000/svg">
<path d="M10.0644 3H10.1756C11.2032 3.00356 16.4098 3.03915 17.8136 3.39743C18.238 3.50677 18.6247 3.7199 18.9351 4.01552C19.2455 4.31114 19.4688 4.6789 19.5825 5.08204C19.7087 5.53285 19.7975 6.12958 19.8575 6.74529L19.87 6.86867L19.8975 7.17712L19.9075 7.3005C19.9888 8.38482 19.9988 9.40033 20 9.62218V9.71115C19.9988 9.94131 19.9875 11.0256 19.8975 12.155L19.8875 12.2796L19.8762 12.403C19.8137 13.0816 19.7212 13.7554 19.5825 14.2513C19.4691 14.6546 19.246 15.0225 18.9355 15.3182C18.6251 15.6139 18.2382 15.8269 17.8136 15.9359C16.3635 16.306 10.8519 16.3321 10.0881 16.3333H9.91062C9.52435 16.3333 7.92675 16.3262 6.25164 16.2716L6.03913 16.2645L5.93037 16.2598L5.71661 16.2515L5.50284 16.2432C4.11526 16.185 2.79392 16.0913 2.18514 15.9347C1.76072 15.8258 1.37392 15.613 1.06347 15.3175C0.753027 15.0221 0.529842 14.6544 0.416276 14.2513C0.277517 13.7566 0.185012 13.0816 0.122508 12.403L0.112507 12.2784L0.102506 12.155C0.0408121 11.3512 0.00662525 10.5456 0 9.73963L0 9.59371C0.00250016 9.33864 0.0125008 8.45719 0.080005 7.48438L0.0887556 7.36219L0.0925058 7.3005L0.102506 7.17712L0.130008 6.86867L0.142509 6.74529C0.202513 6.12958 0.291268 5.53166 0.417526 5.08204C0.5309 4.67873 0.754 4.31081 1.06446 4.01513C1.37492 3.71946 1.76182 3.50644 2.18639 3.39743C2.79517 3.2432 4.11651 3.14829 5.50409 3.08898L5.71661 3.08067L5.93162 3.07355L6.03913 3.06999L6.25289 3.06169C7.4426 3.02536 8.6328 3.00519 9.82311 3.00119H10.0644V3ZM8.0005 6.80817V12.524L13.1971 9.66726L8.0005 6.80817Z" fill="white"/>
</svg>
